<svg xmlns="http://www.w3.org/2000/svg" width="419.992" height="482" viewBox="0 0 1679.969 1928">
  <defs>
    <style>
      .cls-1 {
        fill: #fff;
        fill-rule: evenodd;
      }
    </style>
  </defs>
  <path id="box_1" data-name="box 1" class="cls-1" d="M1110.72,36.067c14.52-.289,26.87.625,36.49,4.293,10.93,4.161,20.73,9.567,25.77,19.32,13.13,25.421-13.41,64.9-23.62,79.427-6.06,8.625-17.42,14.472-18.25,27.907,0.87,1.1.38,0.3,1.08,2.147,12.58,5.645,32.95-.9,49.38,3.22,12.64,3.174,15.11,10.313,22.54,18.247,1.34,20.17-5.26,31.149-22.54,35.421-17.92,4.426-48.38-9.624-49.38,11.806,16.8,12.848,38.31,51.6,44.01,76.208,7.78,33.593-35.69,54.63-66.56,47.227-8.94-2.145-19.59-3.326-28.98-6.44-38.15-12.656-68.45-40.36-88.024-71.914-7.184-11.581-16.051-48.9-24.689-54.741-4.179-3.058-11.081-1.749-16.1-4.293-14.368-7.279-21.861-34.975-5.368-46.154,7.712-5.227,22.054-2.5,25.763-11.807,6.419-7.357,6.711-22.887,10.735-32.2,7.218-16.708,18.515-32.214,28.985-46.154,11.77-15.674,41.61-33.882,61.19-41.861Q1091.93,40.9,1110.72,36.067Zm173.9,137.389c36.47-.868,72.78,26.3,88.02,47.227,7.52,10.316,22.13,25.04,10.74,41.86-5.92,8.744-22.72,16.176-35.43,8.587-5.78-3.452-9.91-9.67-13.95-15.027-6.37-8.435-18.87-18-27.91-23.613-11.35-7.052-30.22-6.219-37.57-17.174-8.63-12.844-2.9-34.335,9.66-38.64C1279.87,175.368,1282.95,174.8,1284.62,173.456Zm108.42,143.828c24.8,0.41,24.71,13.941,27.91,36.494,0.35,2.5,2,7.727,1.07,11.807-6.61,28.967-8.87,57.063-24.69,76.207-7.2,8.712-21,14.434-33.28,6.44-4.84-3.153-6.89-8.718-10.73-12.88-2.16-25.025,8.81-41.821,13.95-64.4,3.69-16.175-2.08-30.865,5.37-41.86C1377.5,321.922,1385.63,322.1,1393.04,317.284Zm-90.17,158.855c24.57-.239,39.59,21.529,25.76,41.861-4.88,7.176-15,10.371-22.54,15.027-18.59,11.465-75.82,43.562-94.47,17.173-7.78-11.017-3.29-26.9,4.3-34.347,6.92-6.8,18.11-7.711,27.91-11.807,15.19-6.35,29.55-14.226,42.93-21.466ZM936.816,526.587c19.554-.425,22.243,6.634,31.131,16.1,2.571,31.438-11.521,33.012-37.572,38.64H913.2c-19.418,4.183-39.383,6.468-49.379-8.586-3.06-4.608-4.246-14.019-2.147-20.394,6.989-21.221,25.591-19.633,48.306-24.687C918.093,525.855,930.59,530.278,936.816,526.587ZM1107.5,527.66c16.29-.257,34.87-1.592,44.01,5.367,3.86,2.943,5.28,9.306,8.59,12.88,1.72,20.652-7.32,31.1-24.69,35.42l-41.87,1.074c-18.03,3.731-44.74,1.816-52.6-8.587a45.241,45.241,0,0,1-6.44-11.807c-1.89-5.978.05-10.588,2.15-15.027,6.52-13.8,14.22-16.529,34.35-17.173l10.73-1.074C1088.29,530.068,1101.93,531.006,1107.5,527.66ZM775.8,571.667c24.46-.593,44.808,18.831,30.057,40.788-7.24,10.777-23.765,19.2-34.351,26.833-5.872,4.234-19.138,15.432-30.057,7.514-12.956-3.582-22.173-22.651-13.955-37.567C737.227,591.566,760.254,583.914,775.8,571.667Zm402.543,49.374c21.6-.616,36.65,8.6,52.6,13.954,38.8,13.017,78.08,23.909,114.86,37.567,18.15,6.737,34.85,8.4,52.6,15.027,92.04,34.346,190.16,59.095,282.32,93.381,30.54,11.36,63.21,18.1,92.32,30.054,11.34,4.657,20.23,6.334,28.99,12.88,8.41,6.29,16.26,22.087,19.32,33.274,8.34,30.541-19.98,59.008-30.06,74.061-26.28,39.225-52.11,78.611-78.36,118.071-8.5,12.77-30.98,37.84-33.28,53.66,3.4,4.5,4.48,10.23,7.52,15.03,4.22,6.7,10.53,12.92,15.02,19.32,9.08,12.92,15.6,26.73,24.69,39.72,15.8,22.55,33,45.73,48.31,68.69,6.6,9.9,11.39,20.26,18.25,30.05,12.96,18.51,27.83,37.4,39.72,56.89,13.5,22.14,4.88,52.03-7.52,68.69-8.22,11.05-22.54,13.63-36.5,19.33-23.79,9.7-50.64,16.72-75.14,25.76-13.21,4.87-38.88,5.57-41.86,20.39-2.89,4.69-.11,12.8,0,18.25v51.52c-3.47,15.89,0,35.53,0,53.66,0,72.15,9.5,146.6-34.35,179.25-15.4,11.47-32.78,14.52-53.68,21.47-25.51,8.48-53.69,17.31-79.43,25.76q-17.715,4.29-35.43,8.59c-104.58,35.17-213.11,63.88-319.89,96.6-35.61,10.91-71.09,20.55-107.34,32.2-12.05,3.87-37.46,13.26-55.825,8.59-34.816-8.86-70.784-21.21-104.125-32.21-14.392-4.74-27.65-5.98-41.865-10.73-65.933-22.04-135.936-40.61-201.811-62.25-6.117-2.01-11.074-1.17-17.175-3.22-54.7-18.38-113.871-34.34-168.534-52.6-52.935-17.68-86.185-15.98-113.787-61.18-12.971-21.24-10.736-61.12-10.734-94.45,0-29.04-.011-55.8,0-85.87,0-13.72,2.842-29.06,0-41.86-3.559-16.03.7-40.24-1.074-55.81-24.272-15.07-66.262-25.79-95.538-35.42-22.892-7.54-47.894-11.17-60.113-28.99-27.93-40.72,1.832-73.11,20.4-100.89,13.176-19.72,25.031-39.61,38.645-59.03,6.7-9.57,15.182-19.05,21.469-28.98,9.16-14.48,17.009-28.92,26.837-42.94,9.1-12.99,18.093-25.87,26.836-39.71,5.377-8.52,13.268-14.54,15.029-26.84q-4.294-8.04-8.588-16.1c-13.493-20.28-26.987-40.47-40.792-61.18-27.4-41.113-58.938-81.057-84.8-123.432-14.378-23.557-5.758-61.946,11.808-75.134,17.03-12.785,38.72-14.2,61.187-22.54,14.866-5.521,30.641-10.458,47.233-16.1,73.014-24.831,150.2-47.328,222.206-74.06,21.292-7.9,41.3-12.865,53.673,6.44,3.1,4.839,6.877,14.8,2.147,21.467-6.71,21.707-46.953,24.142-68.7,32.2-65.189,24.154-135.66,45.336-201.811,67.621-19.481,6.562-38.986,11.616-56.894,18.247-8.424,3.119-18.448,2.245-21.469,10.733-1.031,1.522-1.048,3.514-1.073,6.44,14.206,15.318,27.019,40.738,38.644,59.034C291.6,962,313.56,989.853,332.458,1018.18c6,8.99,26.728,45.03,34.35,48.3h10.735c6.4-4.2,15.675-3.78,23.616-6.44,18.011-6.04,37.888-12.25,56.894-19.32,67.369-25.07,141.066-41.57,207.178-68.694,19.767-8.11,42.911-13.176,62.26-20.394,6.641-2.477,19.668-4.421,16.1-12.88-2.011-9.358-12.5-10.461-18.249-16.1-8.88-8.714-30.844-42.84-34.35-55.814-3.472-12.847,6.6-25.048,12.881-28.981,6.724-4.21,21.275-4.449,27.91,0,9.134,6.125,11.265,17.259,17.176,26.834,6.545,10.6,17.779,20,21.469,33.274,3.431,12.345-5.054,19.788-6.441,28.98,4.7,5.859,4.713,8.861,16.1,8.587,9.342-6.748,34.539-10.773,47.232-15.027,25.554-8.563,53.175-18.423,78.363-26.833,14.109-4.712,46.1-7.252,46.159-24.687-10.3-11.281-17.222-26.977-25.763-39.714-20.46-30.511-42.171-61.166-63.335-91.235-5.688-8.082-27.554-34.434-17.175-49.374,6.268-22.064,36.312-18.328,47.232-3.22,23.395,32.366,44.932,66.362,67.628,98.748,12.422,17.725,21.979,36.14,36.5,51.521h6.44c18.7-20.575,32.06-45.515,48.31-68.694,17.67-25.212,35.99-51.025,53.67-76.208,10.75-15.32,25.74-45.458,39.72-55.814a93.4,93.4,0,0,1,19.32-10.734C1169.2,622.453,1174.52,623.559,1178.34,621.041Zm3.23,55.814c-13.73,15.068-23.4,32.213-35.43,49.374-21.04,30.023-41.65,60.432-62.26,91.235-8.82,13.176-33.02,39.625-35.42,55.814,2.32,2.542,3.54,6.695,6.44,8.587q21.465,6.439,42.94,12.88c36.66,13.649,74.6,23.741,112.71,36.494,98.3,32.895,197.83,63.513,297.35,96.6,11.9,3.96,25.13,9.79,36.5,13.95,14.46,5.3,27.93,6.56,41.86,11.81,13.21,4.98,28.38,11.78,44.01,13.95,17.74-15.34,28.65-35.94,41.87-55.81,8.25-12.406,18.32-24.36,26.83-36.494,12.08-17.212,21.63-35.079,33.28-52.594,8.28-12.445,32.84-39.059,33.28-55.814-30.87-18.714-78.85-27.072-115.94-39.714-55.54-18.935-113.94-37.955-169.6-56.887-35.13-11.948-69.51-19.09-104.13-32.2-33.63-12.737-70.45-22.957-104.12-35.42q-9.135-2.147-18.25-4.294C1234.81,691.406,1203.97,677.257,1181.57,676.855Zm-485.209,3.22c13.049,0.574,32,14.295,28.983,28.981-1.5,7.3-4.591,16.84-6.44,24.687-5.317,22.559,2.605,34.707-18.249,42.934-3.09,1.219-10.257,3.837-16.1,2.146-26.038-7.533-21.845-43.213-13.955-67.62,2.3-7.123,1.658-13.858,5.367-19.321C680.8,684.757,689.1,684.935,696.361,680.075Zm303.789,241.5c-1.974,2.993-3.419,3.032-4.293,7.513-2.929,4.727-1.074,17.832-1.074,24.687V1189.92c0,27.53-3.754,63.22,2.147,86.94,3.89,1.85,5.64,3.08,11.81,3.22,11.72-7.69,27.88-7.71,41.86-12.88,31.16-11.52,63.02-20.04,95.54-31.13,84.43-28.8,172.01-56.55,256.56-84.8,30.43-10.16,61.17-18.21,90.17-28.98,17.28-6.41,31.29-7.11,42.94-19.32-3.79-13.94-14.93-12.34-27.91-17.17-32.95-12.25-67.24-21.69-101.98-33.27-95.68-31.89-192.88-62.254-289.84-94.458-27.19-9.033-54.27-17.424-82.65-26.833C1022.38,927.576,1015,921.841,1000.15,921.579ZM371.1,1135.17c-1.266.87-1.8,0.83-4.294,1.08-2.262,3.54-6.243,5.37-8.587,8.58-15.66,21.45-30.12,44.06-45.086,65.48-20.922,29.94-38.122,61.37-59.04,91.23-9.757,13.93-18.957,28.62-28.983,42.94-2.568,3.66-10.189,8.89-8.588,16.1,2.67,12.01,23.842,13.38,35.424,17.17,17.615,5.77,36.713,13.77,53.673,19.32,15.887,5.21,29.934,7.25,45.086,12.88,96.077,35.73,196.129,62.33,294.128,95.53,32.646,11.06,66.152,20.82,99.832,32.2,15.548,5.25,36.041,16.04,53.673,17.17,21.122-18.78,35.024-45.33,50.452-69.76,18.259-28.92,38.677-57.05,57.967-85.87,9.419-14.07,19-28.61,28.984-42.94,5.795-8.31,14.284-14.47,16.1-26.83-14.486-15.88-26.88-13.62-48.306-21.47-34.47-12.62-70.144-22.27-106.273-34.34-98.14-32.79-197.863-63.31-297.348-96.6-20.892-7-43.728-14.9-64.408-22.55l-18.249-4.29C402.635,1144.89,388.022,1137.51,371.1,1135.17Zm1255.948,0c-12.73,7.96-30.59,8.08-45.08,13.96-35.36,14.34-72.79,22.55-110.57,35.42-92.09,31.36-188.57,62.54-281.25,93.38-35.68,11.87-72.04,21.85-106.27,34.35-13.36,4.87-33.31,4.28-35.42,20.39,11.03,14.19,18.67,30.37,28.98,45.08,29.25,41.74,56.99,85.33,86.95,126.66,6.52,8.99,26.01,44.36,33.28,48.3q6.435,0.525,12.88,1.07c10.4-6.93,24.76-7.55,37.57-11.81,31.17-10.35,63.48-20.39,95.54-31.12,96.85-32.43,196.21-64.34,293.05-96.61,31.61-10.52,61.93-20.05,92.32-30.05,20.03-6.59,43.67-9.1,55.82-23.61-1.97-9.2-7.39-13.06-11.81-19.32-9.01-12.78-17.05-26.3-25.76-38.64-9.16-12.98-15.78-26.37-24.69-39.72-15.48-23.18-34.38-46.2-49.38-69.76C1663.7,1178.2,1644.81,1138.98,1627.05,1135.17ZM993.71,1374.53c-1.152.81-1.015,0.65-3.221,1.07-7.627,11.99-18.549,23.65-26.836,35.42-29.782,42.33-57.571,85.71-86.951,127.73-17.093,24.45-28.7,56.57-59.04,67.62-28.253,10.3-78.974-14.15-100.905-21.46-53.949-18-108.229-35.18-161.019-52.6-25.439-8.39-49.01-13.42-74.069-22.54-19.388-7.05-38.948-12.03-59.041-19.32-11.5-4.17-24.2-10.33-36.5-7.51-5.721,12.46-3.221,37.11-3.221,54.74v120.21c0,18.95-3.3,46.79,4.294,59.04,10.909,17.59,34.178,19.73,55.82,26.83,34.546,11.35,69.631,19.41,105.2,31.13,85.734,28.24,176.413,52.01,261.925,80.5,16.033,5.34,30.287,6.54,46.159,11.81,32.21,10.69,66.2,19.15,99.832,30.05,12.122,3.93,24.919,10.54,38.644,11.81,2.493-2.09,4.554-2.58,6.437-5.37,5.29-7.05,2.17-29.61,2.15-40.79-0.05-31.88-1.07-63.99-1.07-98.74,0-86.35,2.14-169.37,2.14-256.53v-78.36c2.93-13.7,1.03-38.7-2.14-51.52C999.249,1376.32,997.837,1375.17,993.71,1374.53Z" transform="translate(-160.031 -36)"/>
</svg>
